<svg xmlns="http://www.w3.org/2000/svg" width="760" height="400" viewBox="0 0 760 400" role="img" aria-label="Same run, both engines relaxed to ack at the master">
<rect width="760" height="400" fill="#1a1a19"/>
<style>
 .ttl{font:600 15px system-ui,-apple-system,Segoe UI,Roboto,sans-serif;fill:#ffffff}
 .sub{font:400 12px system-ui,-apple-system,Segoe UI,Roboto,sans-serif;fill:#c3c2b7}
 .ax {font:400 11px system-ui,-apple-system,Segoe UI,Roboto,sans-serif;fill:#c3c2b7}
 .lb {font:600 11px system-ui,-apple-system,Segoe UI,Roboto,sans-serif;fill:#ffffff}
 .an {font:400 10.5px system-ui,-apple-system,Segoe UI,Roboto,sans-serif;fill:#c3c2b7}
</style>
<text class="ttl" x="66" y="26">Same run, both engines relaxed to ack at the master</text>
<text class="sub" x="66" y="43">Worth 1.57x to Rostam and 1.58x to Aerospike — the posture flatters neither.</text>
<line x1="66" y1="334.0" x2="628" y2="334.0" stroke="#33322e" stroke-width="1"/><text class="ax" x="57" y="338.0" text-anchor="end">0</text><line x1="66" y1="251.1" x2="628" y2="251.1" stroke="#33322e" stroke-width="1"/><text class="ax" x="57" y="255.1" text-anchor="end">50</text><line x1="66" y1="168.1" x2="628" y2="168.1" stroke="#33322e" stroke-width="1"/><text class="ax" x="57" y="172.1" text-anchor="end">100</text><line x1="66" y1="85.2" x2="628" y2="85.2" stroke="#33322e" stroke-width="1"/><text class="ax" x="57" y="89.2" text-anchor="end">150</text><text class="ax" x="57" y="42" text-anchor="end">k ops/s</text><text class="ax" x="66.0" y="354" text-anchor="middle">8</text><text class="ax" x="347.0" y="354" text-anchor="middle">32</text><text class="ax" x="628.0" y="354" text-anchor="middle">128</text><text class="ax" x="347.0" y="374" text-anchor="middle">concurrent connections</text><polyline points="66.0,238.1 347.0,163.1 628.0,72.9" fill="none" stroke="#3987e5" stroke-width="2" stroke-linejoin="round" stroke-linecap="round"/><circle cx="66.0" cy="238.1" r="4.5" fill="#3987e5" stroke="#1a1a19" stroke-width="2"/><circle cx="347.0" cy="163.1" r="4.5" fill="#3987e5" stroke="#1a1a19" stroke-width="2"/><circle cx="628.0" cy="72.9" r="4.5" fill="#3987e5" stroke="#1a1a19" stroke-width="2"/><polyline points="66.0,225.7 347.0,177.7 628.0,125.5" fill="none" stroke="#9085e9" stroke-width="2" stroke-linejoin="round" stroke-linecap="round"/><circle cx="66.0" cy="225.7" r="4.5" fill="#9085e9" stroke="#1a1a19" stroke-width="2"/><circle cx="347.0" cy="177.7" r="4.5" fill="#9085e9" stroke="#1a1a19" stroke-width="2"/><circle cx="628.0" cy="125.5" r="4.5" fill="#9085e9" stroke="#1a1a19" stroke-width="2"/><circle cx="641" cy="72.9" r="4.5" fill="#3987e5"/><text class="lb" x="651" y="76.9">Rostam</text><circle cx="641" cy="125.5" r="4.5" fill="#9085e9"/><text class="lb" x="651" y="129.5">Aerospike</text></svg>